<svg xmlns="http://www.w3.org/2000/svg" width="657" height="244" viewBox="0 0 657 244"><path fill="#fff" d="M41.04 243.507H.535V17.275L41.04 2.64zM.536 17.275L41.04.493l202.51 202.512-18.954 38.135zM29.176 243.507l-14.08-40.502H243.55l-16.875 40.502zM29.176 243.507L12.49 203.005 172.374 43.03l28.64 28.64z"/><g fill="#fff"><path d="M276.533 122.883v-48.93h10.92v39.2h20.86v9.73h-31.78zM352.47 122.883l-4.55-10.57h-20.51l-4.55 10.57h-11.62l21.14-48.93h10.57l21.14 48.93h-11.62zm-14.77-34.37l-6.16 14.21h12.25l-6.09-14.21zM384.23 83.402v39.48h-10.92v-39.48h-13.86v-9.45h38.64v9.45h-13.86zM439.204 73.953v9.73h-24.36v10.08h21.91v9.31h-21.91v10.15h25.13v9.66h-36.05v-48.93h35.28zM488.624 90.192c0 7.84-3.104 12.904-9.31 15.19l12.39 17.5h-13.44l-10.85-15.61h-7.56v15.61h-10.92v-48.93h18.55c7.605 0 13.03 1.284 16.274 3.85 3.244 2.568 4.866 6.698 4.866 12.39zm-13.16 5.81c1.354-1.212 2.03-3.137 2.03-5.774 0-2.636-.7-4.444-2.1-5.425-1.4-.98-3.85-1.47-7.35-1.47h-8.19v14.49h7.98c3.733 0 6.276-.606 7.63-1.82zM535.922 122.883l-4.55-10.57h-20.51l-4.55 10.57h-11.62l21.14-48.93h10.57l21.14 48.93h-11.62zm-14.77-34.37l-6.16 14.21h12.25l-6.09-14.21zM552.336 122.883v-48.93h10.92v39.2h20.86v9.73h-31.78zM297.254 143.402v39.48h-10.92v-39.48h-13.86v-9.45h38.64v9.45h-13.86zM347.33 133.953h10.92v48.93h-10.92v-19.25h-19.46v19.25h-10.92v-48.93h10.92v20.44h19.46v-20.44zM410.315 176.128c-4.946 4.83-11.037 7.245-18.27 7.245-7.234 0-13.324-2.415-18.27-7.245s-7.42-10.838-7.42-18.025c0-7.186 2.473-13.194 7.42-18.024s11.035-7.246 18.27-7.246c7.232 0 13.323 2.415 18.27 7.245s7.42 10.838 7.42 18.023c0 7.187-2.473 13.195-7.42 18.025zm-3.71-17.99c0-4.363-1.4-8.085-4.2-11.165-2.8-3.08-6.24-4.62-10.324-4.62-4.083 0-7.524 1.54-10.324 4.62s-4.2 6.802-4.2 11.165c0 4.364 1.4 8.074 4.2 11.13 2.8 3.058 6.24 4.585 10.325 4.585 4.084 0 7.525-1.527 10.325-4.585 2.8-3.056 4.2-6.766 4.2-11.13zM438.497 170.248c1.82 2.264 4.27 3.395 7.35 3.395s5.52-1.13 7.315-3.395c1.796-2.264 2.695-5.355 2.695-9.275v-27.02h10.92v27.37c0 7.094-1.96 12.542-5.88 16.345-3.92 3.804-8.938 5.705-15.05 5.705-6.114 0-11.143-1.913-15.085-5.74-3.944-3.826-5.915-9.263-5.915-16.31v-27.37h10.92v27.02c0 3.92.91 7.01 2.73 9.275zM508.608 157.963h10.99v17.36c-4.854 5.414-11.574 8.12-20.16 8.12-7.187 0-13.22-2.38-18.095-7.14-4.877-4.76-7.315-10.77-7.315-18.026s2.485-13.31 7.455-18.164 10.966-7.28 17.99-7.28c7.022 0 13.125 2.31 18.305 6.93l-5.67 8.19c-2.194-1.913-4.212-3.23-6.055-3.955-1.844-.724-3.84-1.085-5.985-1.085-4.154 0-7.654 1.412-10.5 4.234-2.847 2.824-4.27 6.545-4.27 11.165s1.365 8.32 4.095 11.096c2.73 2.776 5.985 4.165 9.765 4.165 3.78 0 6.93-.724 9.45-2.17v-13.44zM558.933 133.953h10.92v48.93h-10.92v-19.25h-19.46v19.25h-10.92v-48.93h10.92v20.44h19.46v-20.44zM600.47 143.402v39.48h-10.92v-39.48h-13.86v-9.45h38.64v9.45h-13.86zM632.27 143.718c-1.05.864-1.575 2.007-1.575 3.43 0 1.425.642 2.556 1.926 3.396 1.283.84 4.246 1.832 8.89 2.975 4.644 1.144 8.25 2.858 10.815 5.145 2.566 2.287 3.85 5.624 3.85 10.01 0 4.387-1.645 7.945-4.935 10.675-3.29 2.73-7.618 4.095-12.984 4.095-7.747 0-14.725-2.87-20.93-8.61l6.51-7.98c5.272 4.62 10.15 6.932 14.63 6.932 2.006 0 3.58-.432 4.725-1.295s1.716-2.03 1.716-3.5c0-1.47-.606-2.637-1.82-3.5-1.213-.863-3.616-1.738-7.21-2.625-5.693-1.354-9.858-3.115-12.494-5.285-2.638-2.17-3.955-5.576-3.955-10.22 0-4.644 1.668-8.226 5.005-10.745 3.336-2.52 7.5-3.78 12.495-3.78 3.266 0 6.533.56 9.8 1.68 3.266 1.12 6.113 2.707 8.54 4.76l-5.53 7.98c-4.247-3.22-8.634-4.83-13.16-4.83-1.822-.004-3.258.427-4.307 1.29z"/></g></svg>