<svg xmlns="http://www.w3.org/2000/svg" width="265" height="98" viewBox="0 0 265 98"><linearGradient id="a" gradientUnits="userSpaceOnUse" x1="8.933" y1="17.975" x2="8.933" y2="85.473"><stop offset="0" stop-color="#3A0D28"/><stop offset=".16" stop-color="#72214E"/><stop offset=".804" stop-color="#72214E"/><stop offset="1" stop-color="#3A0D28"/></linearGradient><path fill="url(#a)" d="M16.993 97.36H.873V7.32l16.12-5.665z"/><linearGradient id="b" gradientUnits="userSpaceOnUse" x1="15.364" y1="10.452" x2="88.236" y2="83.324"><stop offset=".117" stop-color="#C00046"/><stop offset=".242" stop-color="#BE0045"/><stop offset=".287" stop-color="#B70043"/><stop offset=".319" stop-color="#AC003F"/><stop offset=".345" stop-color="#9B003A"/><stop offset=".367" stop-color="#850033"/><stop offset=".387" stop-color="#6A002A"/><stop offset=".393" stop-color="#600027"/><stop offset=".571" stop-color="#600027"/><stop offset=".583" stop-color="#77002E"/><stop offset=".602" stop-color="#910037"/><stop offset=".623" stop-color="#A6003E"/><stop offset=".646" stop-color="#B50042"/><stop offset=".674" stop-color="#BD0045"/><stop offset=".718" stop-color="#C00046"/><stop offset=".767" stop-color="#BA0044"/><stop offset=".831" stop-color="#AA003F"/><stop offset=".903" stop-color="#8F0036"/><stop offset=".981" stop-color="#6A002A"/><stop offset="1" stop-color="#600027"/></linearGradient><path fill="url(#b)" d="M.873 7.32L16.993.64l80.6 80.6-8.14 14.74z"/><linearGradient id="c" gradientUnits="userSpaceOnUse" x1="39.389" y1="89.3" x2="17.829" y2="89.3"><stop offset="0" stop-color="#E3342D"/><stop offset=".315" stop-color="#C32B27"/><stop offset=".767" stop-color="#9A201F"/><stop offset="1" stop-color="#8A1C1C"/></linearGradient><path fill="url(#c)" d="M12.27 97.36L7.863 81.24h89.732l-6.717 16.12z"/><path fill="#F46A27" d="M12.27 97.36L5.63 81.24l63.635-63.67 11.398 11.4z"/><g fill="#7C8988"><path d="M110.72 49.35V29.875h4.347v15.603h8.302v3.872h-12.65zM141.245 49.35l-1.812-4.207h-8.163l-1.81 4.207h-4.626l8.414-19.475h4.207l8.413 19.475h-4.623zm-5.88-13.68l-2.45 5.656h4.875l-2.424-5.656zM154.38 33.637V49.35h-4.348V33.637h-5.516v-3.762h15.38v3.762h-5.517zM176.65 29.875v3.873h-9.694v4.012h8.72v3.705h-8.72v4.04h10.002v3.845h-14.35V29.875h14.043zM196.67 36.34c0 3.12-1.235 5.135-3.705 6.045l4.93 6.965h-5.348l-4.318-6.213h-3.01v6.213h-4.347V29.875h7.384c3.026 0 5.186.512 6.477 1.533s1.936 2.666 1.936 4.93zm-5.237 2.312c.538-.482.808-1.25.808-2.3 0-1.048-.277-1.768-.835-2.158-.557-.39-1.532-.585-2.925-.585h-3.26v5.767h3.176c1.486 0 2.498-.242 3.037-.725zM215.796 49.35l-1.812-4.207h-8.163l-1.81 4.207h-4.625l8.414-19.475h4.206l8.413 19.475h-4.624zm-5.88-13.68l-2.45 5.656h4.875l-2.423-5.656zM222.685 49.35V29.875h4.347v15.603h8.302v3.872h-12.65zM118.967 57.517V73.23h-4.347V57.517h-5.516v-3.762h15.38v3.762h-5.517zM139.288 53.755h4.346V73.23h-4.346v-7.662h-7.745v7.662h-4.347V53.755h4.347v8.135h7.745v-8.135zM164.715 70.54c-1.97 1.923-4.393 2.886-7.27 2.886s-5.304-.963-7.272-2.885-2.953-4.312-2.953-7.173c0-2.86.984-5.252 2.953-7.173 1.97-1.923 4.393-2.884 7.27-2.884s5.304.96 7.272 2.884c1.97 1.92 2.953 4.314 2.953 7.173 0 2.862-.984 5.252-2.953 7.174zm-1.476-7.16c0-1.735-.558-3.216-1.672-4.442-1.115-1.225-2.484-1.838-4.11-1.838-1.625 0-2.994.613-4.108 1.838-1.115 1.227-1.672 2.707-1.672 4.443 0 1.74.557 3.216 1.672 4.43 1.114 1.218 2.483 1.827 4.11 1.827 1.624 0 2.993-.61 4.108-1.826 1.114-1.214 1.67-2.69 1.67-4.43zM176.302 68.2c.725.9 1.7 1.353 2.926 1.353s2.196-.45 2.91-1.352 1.073-2.13 1.073-3.69V53.755h4.348v10.893c0 2.824-.78 4.992-2.34 6.506-1.56 1.514-3.558 2.27-5.99 2.27-2.434 0-4.435-.76-6.004-2.284-1.57-1.523-2.354-3.688-2.354-6.492V53.755h4.347V64.51c0 1.56.362 2.79 1.085 3.69zM204.574 63.313h4.374v6.908c-1.932 2.155-4.606 3.233-8.023 3.233-2.86 0-5.26-.947-7.2-2.842-1.942-1.894-2.913-4.284-2.913-7.173s.99-5.3 2.968-7.23c1.978-1.932 4.364-2.897 7.16-2.897 2.795 0 5.224.92 7.285 2.758l-2.257 3.26c-.873-.762-1.677-1.287-2.41-1.575-.733-.287-1.527-.432-2.382-.432-1.653 0-3.046.564-4.18 1.687-1.133 1.123-1.7 2.605-1.7 4.443s.545 3.31 1.63 4.416c1.088 1.105 2.384 1.658 3.888 1.658 1.505 0 2.758-.29 3.76-.865v-5.347zM224.957 53.755h4.346V73.23h-4.346v-7.662h-7.745v7.662h-4.347V53.755h4.347v8.135h7.745v-8.135zM241.878 57.517V73.23h-4.347V57.517h-5.515v-3.762h15.38v3.762h-5.517zM254.906 57.642c-.418.344-.627.8-.627 1.366s.254 1.016.766 1.352c.51.334 1.69.73 3.538 1.184 1.848.455 3.282 1.137 4.304 2.047s1.532 2.24 1.532 3.985-.654 3.162-1.964 4.248c-1.31 1.088-3.032 1.63-5.168 1.63-3.083 0-5.86-1.142-8.33-3.427l2.59-3.176c2.1 1.84 4.04 2.758 5.824 2.758.798 0 1.425-.17 1.88-.516.455-.342.683-.807.683-1.393 0-.585-.24-1.05-.724-1.394-.482-.344-1.44-.69-2.87-1.045-2.266-.538-3.923-1.24-4.972-2.103-1.05-.863-1.574-2.22-1.574-4.066 0-1.848.664-3.273 1.992-4.276 1.327-1.003 2.985-1.505 4.973-1.505 1.3 0 2.6.222 3.9.668 1.3.445 2.432 1.077 3.398 1.895l-2.2 3.175c-1.69-1.28-3.438-1.922-5.24-1.922-.723 0-1.294.173-1.712.516z"/></g></svg>