<?xml version="1.0" encoding="utf-8"?>
<!-- Generator: Adobe Illustrator 16.0.0, SVG Export Plug-In . SVG Version: 6.00 Build 0)  -->
<!DOCTYPE svg PUBLIC "-//W3C//DTD SVG 1.1//EN" "http://www.w3.org/Graphics/SVG/1.1/DTD/svg11.dtd">
<svg version="1.1" id="Layer_1" xmlns="http://www.w3.org/2000/svg" xmlns:xlink="http://www.w3.org/1999/xlink" x="0px" y="0px"
	 width="16px" height="10px" viewBox="0 0 16 10" enable-background="new 0 0 16 10" xml:space="preserve">
<g>
	<g>
		<polygon fill="none" points="8,6.016 5.072,4.036 2.225,9 8,9 13.775,9 10.928,4.036 		"/>
		<polygon fill="none" points="1,1.283 1,7.301 4.406,3.587 		"/>
		<polygon fill="none" points="13.607,1 8,1 2.393,1 8,4.984 		"/>
		<polygon fill="none" points="15,7.301 15,1.283 11.594,3.587 		"/>
		<path d="M8,0H0v10h8h8V0H8z M8,1h5.607L8,4.984L2.393,1H8z M1,1.283l3.406,2.304L1,7.301V1.283z M8,9H2.225l2.848-4.964L8,6.016
			l2.928-1.979L13.775,9H8z M15,7.301l-3.406-3.714L15,1.283V7.301z"/>
	</g>
</g>
</svg>
