<?xml version="1.0" encoding="utf-8"?>
<!-- Generator: Adobe Illustrator 16.0.0, SVG Export Plug-In . SVG Version: 6.00 Build 0)  -->
<!DOCTYPE svg PUBLIC "-//W3C//DTD SVG 1.1//EN" "http://www.w3.org/Graphics/SVG/1.1/DTD/svg11.dtd">
<svg version="1.1" id="Layer_1" xmlns="http://www.w3.org/2000/svg" xmlns:xlink="http://www.w3.org/1999/xlink" x="0px" y="0px"
	 width="32px" height="32px" viewBox="0 0 32 32" enable-background="new 0 0 32 32" xml:space="preserve">
<path d="M16,0C7.163,0,0,7.163,0,16s7.163,16,16,16s16-7.163,16-16S24.837,0,16,0z M16,29.5C8.544,29.5,2.5,23.456,2.5,16
	S8.544,2.5,16,2.5S29.5,8.544,29.5,16S23.456,29.5,16,29.5z"/>
<path fill-rule="evenodd" clip-rule="evenodd" d="M19.797,13.551h-2.783V11.52c0-0.623,0.645-0.768,0.945-0.768
	c0.299,0,1.798,0,1.798,0V8.011L17.696,8c-2.812,0-3.453,2.044-3.453,3.354v2.196h-2.04v2.824h2.04c0,3.626,0,7.625,0,7.625h2.771
	c0,0,0-4.04,0-7.625h2.354L19.797,13.551z"/>
</svg>
