<?xml version="1.0" encoding="utf-8"?>
<!-- Generator: Adobe Illustrator 16.0.0, SVG Export Plug-In . SVG Version: 6.00 Build 0)  -->
<!DOCTYPE svg PUBLIC "-//W3C//DTD SVG 1.1//EN" "http://www.w3.org/Graphics/SVG/1.1/DTD/svg11.dtd">
<svg version="1.1" id="Layer_1" xmlns="http://www.w3.org/2000/svg" xmlns:xlink="http://www.w3.org/1999/xlink" x="0px" y="0px"
	 width="32px" height="32.031px" viewBox="0 0 32 32.031" enable-background="new 0 0 32 32.031" xml:space="preserve">
<path d="M16,0.025c-8.837,0-16,7.163-16,16s7.163,16,16,16s16-7.163,16-16S24.836,0.025,16,0.025z M16,29.525
	c-7.456,0-13.5-6.044-13.5-13.5s6.044-13.5,13.5-13.5s13.5,6.044,13.5,13.5S23.456,29.525,16,29.525z"/>
<g>
	<path d="M14.427,22.23c-0.066,0-0.131-0.009-0.198-0.027c-0.377-0.109-0.594-0.503-0.486-0.881l3.077-10.673
		c0.109-0.377,0.503-0.594,0.88-0.486c0.377,0.109,0.595,0.503,0.486,0.881L15.11,21.717C15.02,22.028,14.735,22.23,14.427,22.23z"
		/>
</g>
<g>
	<g>
		<path d="M13.214,20.061L6.11,17.113c0,0-0.735-0.27-0.735-0.926s0.735-0.93,0.735-0.93l7.104-2.951v2.219l-4.317,1.664
			l4.317,1.665V20.061z"/>
	</g>
</g>
<g>
	<g>
		<path d="M18.715,17.854l4.317-1.665l-4.317-1.664v-2.219l7.104,2.951c0,0,0.735,0.273,0.735,0.93s-0.735,0.926-0.735,0.926
			l-7.104,2.947V17.854z"/>
	</g>
</g>
</svg>
