<?xml version="1.0" encoding="utf-8"?>
<!-- Generator: Adobe Illustrator 16.0.0, SVG Export Plug-In . SVG Version: 6.00 Build 0)  -->
<!DOCTYPE svg PUBLIC "-//W3C//DTD SVG 1.1//EN" "http://www.w3.org/Graphics/SVG/1.1/DTD/svg11.dtd">
<svg version="1.1" id="Layer_1" xmlns="http://www.w3.org/2000/svg" xmlns:xlink="http://www.w3.org/1999/xlink" x="0px" y="0px"
	 width="33px" height="33px" viewBox="0 0 33 33" enable-background="new 0 0 33 33" xml:space="preserve">
<path d="M16.078,0.775c-8.837,0-16,7.163-16,16s7.163,16,16,16s16-7.163,16-16S24.915,0.775,16.078,0.775z M16.078,30.275
	c-7.456,0-13.5-6.044-13.5-13.5s6.044-13.5,13.5-13.5s13.5,6.044,13.5,13.5S23.534,30.275,16.078,30.275z"/>
<g>
	<g>
		<path d="M15.328,19.973c-0.397,0-0.77-0.155-1.05-0.436l-2.141-1.454v3.805v0.001c0,0.681,1.899,1.233,4.241,1.233
			c2.341,0,4.24-0.553,4.24-1.233v-0.001v-4.405l-4.24,2.055C16.098,19.817,15.725,19.973,15.328,19.973z M19.311,18.787
			c0-0.096,0.085-0.173,0.19-0.173c0.104,0,0.19,0.077,0.19,0.173v3.253c0,0.097-0.086,0.174-0.19,0.174
			c-0.105,0-0.19-0.077-0.19-0.174V18.787z"/>
		<path d="M23.399,14.194l-5.23-3.457c-0.409-0.409-1.072-0.409-1.482,0l-7.33,3.457c-0.409,0.409-0.409,1.072,0,1.482l2.78,1.89
			l2.449,1.664c0.41,0.407,1.074,0.407,1.483,0l4.549-2.206l2.781-1.348C23.808,15.267,23.808,14.604,23.399,14.194z"/>
		<path d="M9.048,15.796c-0.048,0-0.09,0.018-0.124,0.047c0.038,0.05,0.078,0.098,0.124,0.143l0.19,0.13v-0.13
			C9.239,15.88,9.153,15.796,9.048,15.796z"/>
		<g>
			<path d="M9.328,20.597c0-0.101-0.02-0.182-0.046-0.182h-0.08H9.048H8.895H8.813c-0.025,0-0.046,0.081-0.046,0.182L8.45,22.15
				c0,0.103,0.02,0.184,0.045,0.184h0.399h0.308h0.399c0.025,0,0.046-0.081,0.046-0.184L9.328,20.597z"/>
			<path d="M9.446,20.018c0-0.167-0.104-0.31-0.248-0.368c0.023-0.032,0.041-0.07,0.041-0.113v-3.421l-0.19-0.13
				c-0.045-0.045-0.085-0.093-0.124-0.143c-0.041,0.034-0.067,0.085-0.067,0.143v3.551c0,0.043,0.017,0.081,0.041,0.113
				c-0.146,0.059-0.248,0.201-0.248,0.368c0,0.22,0.178,0.397,0.397,0.397S9.446,20.237,9.446,20.018z"/>
		</g>
	</g>
</g>
</svg>
