<?xml version="1.0" encoding="utf-8"?>
<!-- Generator: Adobe Illustrator 16.0.0, SVG Export Plug-In . SVG Version: 6.00 Build 0)  -->
<!DOCTYPE svg PUBLIC "-//W3C//DTD SVG 1.1//EN" "http://www.w3.org/Graphics/SVG/1.1/DTD/svg11.dtd">
<svg version="1.1" id="Layer_1" xmlns="http://www.w3.org/2000/svg" xmlns:xlink="http://www.w3.org/1999/xlink" x="0px" y="0px"
	 width="32px" height="32px" viewBox="0 0 32 32" enable-background="new 0 0 32 32" xml:space="preserve">
<path d="M16,0C7.163,0,0,7.163,0,16s7.163,16,16,16s16-7.163,16-16S24.837,0,16,0z M16,29.5C8.544,29.5,2.5,23.456,2.5,16
	S8.544,2.5,16,2.5S29.5,8.544,29.5,16S23.456,29.5,16,29.5z"/>
<path d="M24,10.683c-0.27,0.16-1.078,0.479-1.832,0.56c0.483-0.281,1.199-1.2,1.376-1.931c-0.465,0.319-1.532,0.785-2.06,0.785
	c0,0,0,0.001,0.001,0.002C20.884,9.422,20.038,9,19.099,9c-1.822,0-3.301,1.591-3.301,3.555c0,0.272,0.03,0.538,0.085,0.792h-0.001
	c-2.473-0.068-5.363-1.403-6.992-3.688c-1,1.866-0.135,3.94,1.001,4.696c-0.388,0.033-1.104-0.047-1.441-0.4
	c-0.023,1.238,0.53,2.878,2.546,3.473c-0.389,0.226-1.074,0.162-1.374,0.112c0.105,1.046,1.465,2.414,2.95,2.414
	C12.042,20.612,10.235,21.81,8,21.428C9.519,22.424,11.289,23,13.163,23c5.325,0,9.461-4.647,9.238-10.381
	c0-0.006-0.002-0.014-0.002-0.019c0-0.016,0.002-0.032,0.002-0.045c0-0.018-0.002-0.035-0.002-0.054
	C22.884,12.146,23.534,11.515,24,10.683z"/>
</svg>
