<?xml version="1.0" encoding="utf-8"?>
<!-- Generator: Adobe Illustrator 16.0.0, SVG Export Plug-In . SVG Version: 6.00 Build 0)  -->
<!DOCTYPE svg PUBLIC "-//W3C//DTD SVG 1.1//EN" "http://www.w3.org/Graphics/SVG/1.1/DTD/svg11.dtd">
<svg version="1.1" id="Calque_1" xmlns="http://www.w3.org/2000/svg" xmlns:xlink="http://www.w3.org/1999/xlink" x="0px" y="0px"
	 width="657px" height="244px" viewBox="0 0 657 244" enable-background="new 0 0 657 244" xml:space="preserve">
<polygon fill="#FFFFFF" points="41.039,243.507 0.536,243.507 0.536,17.275 41.039,2.64 "/>
<polygon fill="#FFFFFF" points="0.536,17.275 41.039,0.493 243.551,203.005 224.596,241.14 "/>
<polygon fill="#FFFFFF" points="29.176,243.507 15.096,203.005 243.551,203.005 226.675,243.507 "/>
<polygon fill="#FFFFFF" points="29.176,243.507 12.49,203.005 172.374,43.03 201.013,71.67 "/>
<g>
	<path fill="#FFFFFF" d="M276.533,122.883v-48.93h10.921v39.199h20.859v9.73H276.533z"/>
	<path fill="#FFFFFF" d="M352.47,122.883l-4.55-10.57h-20.51l-4.551,10.57H311.24l21.14-48.93h10.57l21.14,48.93H352.47z
		 M337.7,88.513l-6.16,14.21h12.25L337.7,88.513z"/>
	<path fill="#FFFFFF" d="M384.229,83.402v39.48h-10.92v-39.48h-13.86v-9.449h38.64v9.449H384.229z"/>
	<path fill="#FFFFFF" d="M439.204,73.953v9.729h-24.359v10.08h21.909v9.311h-21.909v10.149h25.13v9.66h-36.051v-48.93H439.204z"/>
	<path fill="#FFFFFF" d="M488.624,90.192c0,7.841-3.104,12.904-9.31,15.19l12.39,17.5h-13.44l-10.85-15.61h-7.56v15.61h-10.921
		v-48.93h18.551c7.605,0,13.03,1.284,16.274,3.85C487.002,80.37,488.624,84.5,488.624,90.192z M475.464,96.003
		c1.354-1.213,2.03-3.138,2.03-5.775c0-2.636-0.7-4.444-2.1-5.425c-1.4-0.979-3.851-1.47-7.351-1.47h-8.189v14.49h7.979
		C471.567,97.823,474.11,97.217,475.464,96.003z"/>
	<path fill="#FFFFFF" d="M535.922,122.883l-4.55-10.57h-20.51l-4.551,10.57h-11.619l21.14-48.93h10.57l21.14,48.93H535.922z
		 M521.152,88.513l-6.16,14.21h12.25L521.152,88.513z"/>
	<path fill="#FFFFFF" d="M552.336,122.883v-48.93h10.921v39.199h20.859v9.73H552.336z"/>
	<path fill="#FFFFFF" d="M297.254,143.402v39.48h-10.92v-39.48h-13.86v-9.449h38.64v9.449H297.254z"/>
	<path fill="#FFFFFF" d="M347.331,133.953h10.92v48.93h-10.92v-19.25h-19.46v19.25H316.95v-48.93h10.921v20.439h19.46V133.953z"/>
	<path fill="#FFFFFF" d="M410.315,176.128c-4.946,4.83-11.037,7.245-18.27,7.245c-7.234,0-13.324-2.415-18.271-7.245
		s-7.42-10.838-7.42-18.025c0-7.186,2.474-13.194,7.42-18.024s11.036-7.245,18.271-7.245c7.232,0,13.323,2.415,18.27,7.245
		s7.42,10.839,7.42,18.024C417.735,165.29,415.262,171.298,410.315,176.128z M406.605,158.138c0-4.363-1.399-8.085-4.2-11.165
		c-2.8-3.08-6.241-4.62-10.324-4.62c-4.084,0-7.525,1.54-10.325,4.62s-4.2,6.802-4.2,11.165c0,4.364,1.4,8.074,4.2,11.13
		c2.8,3.058,6.241,4.585,10.325,4.585c4.083,0,7.524-1.527,10.324-4.585C405.206,166.212,406.605,162.502,406.605,158.138z"/>
	<path fill="#FFFFFF" d="M438.497,170.248c1.82,2.264,4.271,3.395,7.351,3.395s5.518-1.131,7.314-3.395
		c1.796-2.264,2.695-5.355,2.695-9.275v-27.02h10.92v27.37c0,7.094-1.96,12.542-5.88,16.345c-3.92,3.804-8.938,5.705-15.05,5.705
		c-6.114,0-11.143-1.913-15.085-5.74c-3.944-3.826-5.915-9.263-5.915-16.31v-27.37h10.92v27.02
		C435.768,164.893,436.678,167.984,438.497,170.248z"/>
	<path fill="#FFFFFF" d="M508.608,157.963h10.99v17.36c-4.854,5.414-11.574,8.119-20.16,8.119c-7.187,0-13.219-2.38-18.095-7.14
		c-4.877-4.76-7.315-10.768-7.315-18.025c0-7.256,2.485-13.311,7.455-18.164s10.966-7.28,17.99-7.28
		c7.022,0,13.125,2.31,18.305,6.93l-5.67,8.19c-2.194-1.913-4.212-3.231-6.055-3.955c-1.844-0.724-3.839-1.085-5.985-1.085
		c-4.154,0-7.654,1.412-10.5,4.234c-2.847,2.824-4.27,6.545-4.27,11.165s1.365,8.319,4.095,11.096
		c2.73,2.776,5.985,4.165,9.765,4.165c3.78,0,6.931-0.724,9.45-2.171V157.963z"/>
	<path fill="#FFFFFF" d="M558.933,133.953h10.92v48.93h-10.92v-19.25h-19.46v19.25h-10.921v-48.93h10.921v20.439h19.46V133.953z"/>
	<path fill="#FFFFFF" d="M600.47,143.402v39.48h-10.92v-39.48h-13.86v-9.449h38.64v9.449H600.47z"/>
	<path fill="#FFFFFF" d="M632.27,143.718c-1.05,0.864-1.575,2.007-1.575,3.43c0,1.425,0.642,2.556,1.926,3.396
		c1.282,0.84,4.245,1.832,8.89,2.975c4.643,1.145,8.248,2.859,10.814,5.146c2.566,2.287,3.851,5.624,3.851,10.01
		c0,4.387-1.646,7.945-4.936,10.675c-3.29,2.73-7.618,4.095-12.984,4.095c-7.747,0-14.725-2.869-20.931-8.609l6.511-7.98
		c5.272,4.62,10.149,6.931,14.63,6.931c2.006,0,3.581-0.432,4.725-1.295s1.715-2.03,1.715-3.5c0-1.471-0.606-2.637-1.819-3.5
		c-1.214-0.863-3.617-1.738-7.21-2.625c-5.694-1.354-9.859-3.115-12.495-5.285c-2.638-2.17-3.955-5.576-3.955-10.221
		c0-4.643,1.668-8.225,5.005-10.744c3.336-2.521,7.501-3.78,12.495-3.78c3.266,0,6.533,0.56,9.8,1.68
		c3.266,1.12,6.113,2.707,8.54,4.76l-5.53,7.98c-4.247-3.22-8.634-4.83-13.16-4.83C634.755,142.423,633.319,142.854,632.27,143.718z
		"/>
</g>
</svg>
