<?xml version="1.0" encoding="utf-8"?>
<!-- Generator: Adobe Illustrator 16.0.0, SVG Export Plug-In . SVG Version: 6.00 Build 0)  -->
<!DOCTYPE svg PUBLIC "-//W3C//DTD SVG 1.1//EN" "http://www.w3.org/Graphics/SVG/1.1/DTD/svg11.dtd">
<svg version="1.1" id="Layer_1" xmlns="http://www.w3.org/2000/svg" xmlns:xlink="http://www.w3.org/1999/xlink" x="0px" y="0px"
	 width="32.031px" height="32.021px" viewBox="0 0 32.031 32.021" enable-background="new 0 0 32.031 32.021" xml:space="preserve">
<g>
	<path d="M16.02,0.016c-8.837,0-16,7.163-16,16s7.163,16,16,16s16-7.163,16-16S24.856,0.016,16.02,0.016z M21.055,17.456
		c0,0.109-0.089,0.198-0.199,0.198h-3.214v3.197c0,0.109-0.089,0.198-0.199,0.198h-2.864c-0.11,0-0.199-0.089-0.199-0.198v-3.197
		h-3.197c-0.11,0-0.199-0.089-0.199-0.198v-2.863c0-0.109,0.089-0.198,0.199-0.198h3.197V11.18c0-0.109,0.089-0.198,0.199-0.198
		h2.864c0.11,0,0.199,0.089,0.199,0.198v3.215h3.214c0.11,0,0.199,0.089,0.199,0.198V17.456z"/>
</g>
</svg>
