<?xml version="1.0" encoding="utf-8"?>
<!-- Generator: Adobe Illustrator 16.0.0, SVG Export Plug-In . SVG Version: 6.00 Build 0)  -->
<!DOCTYPE svg PUBLIC "-//W3C//DTD SVG 1.1//EN" "http://www.w3.org/Graphics/SVG/1.1/DTD/svg11.dtd">
<svg version="1.1" id="Layer_1" xmlns="http://www.w3.org/2000/svg" xmlns:xlink="http://www.w3.org/1999/xlink" x="0px" y="0px"
	 width="32px" height="32px" viewBox="0 0 32 32" enable-background="new 0 0 32 32" xml:space="preserve">
<g>
	<path d="M16,0C7.163,0,0,7.163,0,16s7.163,16,16,16s16-7.163,16-16S24.837,0,16,0z M16,29.5C8.544,29.5,2.5,23.456,2.5,16
		S8.544,2.5,16,2.5S29.5,8.544,29.5,16S23.456,29.5,16,29.5z"/>
</g>
<g>
	<path d="M16.493,25.413l-3.732-0.724l3.073,1.716c0.179,0.109,0.423-0.018,0.548-0.284l0.343-0.724
		c-0.047,0.015-0.094,0.023-0.142,0.024C16.553,25.422,16.522,25.418,16.493,25.413z"/>
	<path d="M24.413,10.81l-2.16-0.709l-4.566,13.341l6.828-11.953C24.7,11.197,24.654,10.894,24.413,10.81z"/>
	<path d="M21.993,9.38c0.027-0.072,0.024-0.14-0.007-0.192c-0.031-0.052-0.087-0.082-0.158-0.084L19.864,9.05l-0.056,0.317
		l-2.358,13.295c-0.077,0.434-0.417,0.795-0.759,0.804l-6.08,0.177l-0.333,0.01c0.005,0.014,0.012,0.027,0.02,0.04
		c0.032,0.052,0.08,0.085,0.134,0.094l0.746,0.121l5.464,0.989c0.106,0.021,0.225-0.082,0.266-0.222l4.875-14.722L21.993,9.38z"/>
	<path d="M16.775,22.945c0.116-0.004,0.229-0.124,0.253-0.268l2.256-13.423l0.035-0.209l0.046-0.272l0.045-0.266l0.164-0.976
		c0.024-0.146-0.085-0.245-0.244-0.224l-9.088,1.213c-0.159,0.021-0.288,0.147-0.288,0.281v13.88v0.248
		c0,0.052,0.015,0.1,0.039,0.138c0.026,0.043,0.064,0.074,0.108,0.088c0.02,0.007,0.041,0.012,0.063,0.011l0.147-0.005
		L16.775,22.945z M11.416,9.605c0.006-0.189,0.222-0.37,0.462-0.401c0.237-0.03,0.446,0.095,0.438,0.286l-0.287,6.494
		c-0.008,0.191-0.203,0.362-0.408,0.38c-0.207,0.019-0.387-0.118-0.382-0.31L11.416,9.605z"/>
</g>
</svg>
